# xmcd
#
# Track frame offsets:
#	150
#	23289
#	42077
#	60177
#	79746
#	100530
#	118310
#	135620
#	170796
#	188834
#	209972
#	232360
#	254968
#	275925
#	294720
#	310804
#
# Disc length: 4413 seconds
#
# Revision: 0
# Processed by: cddbd v1.5.2PL0 Copyright (c) Steve Scherf et al.
# Submitted via: EZCDAudioConverter 5.0.0.1
#
DISCID=f8113b10
DTITLE=Ngoc Son - Tuyet pham Rumba
DYEAR=1900
DGENRE=
TTITLE0=Chiec ao ba ba
TTITLE1=Lo yeu
TTITLE2=Chuyen chung minh
TTITLE3=Dem buon pho thi
TTITLE4=Dung
TTITLE5=Gian hon 2
TTITLE6=Hoa su nha nang
TTITLE7=LK Nho ve em
TTITLE8=Nhung dem lanh
TTITLE9=Qua ngo nha em
TTITLE10=Sen
TTITLE11=Ta ao cuoi
TTITLE12=The
TTITLE13=Thuong nho
TTITLE14=Tien
TTITLE15=Trong tam mat doi
EXTD=
EXTT0=
EXTT1=
EXTT2=
EXTT3=
EXTT4=
EXTT5=
EXTT6=
EXTT7=
EXTT8=
EXTT9=
EXTT10=
EXTT11=
EXTT12=
EXTT13=
EXTT14=
EXTT15=
PLAYORDER=
